<svg width="33" height="34" viewBox="0 0 33 34" fill="none" xmlns="http://www.w3.org/2000/svg">
<path d="M5.71149 0.0886988C4.90884 0.26347 4.75996 0.379983 2.66918 2.47723C0.8438 4.29614 0.701395 4.45797 0.487786 4.91108C0.131772 5.66194 0.0476226 6.06327 0.0087847 7.12484C-0.0300532 8.19288 0.0540956 8.89844 0.377745 10.1283C2.32612 17.5269 11.0388 27.2623 19.376 31.3532C21.8487 32.5637 23.7194 33.0945 25.5577 33.101C26.684 33.101 27.2536 32.9844 28.0368 32.6025C28.5417 32.3566 28.6712 32.2336 30.4901 30.4211C32.5226 28.3886 32.6391 28.2397 32.898 27.3788C33.034 26.9257 33.034 26.0713 32.898 25.6182C32.665 24.8414 32.5679 24.7249 29.9982 22.1422C28.6453 20.7764 27.3572 19.5336 27.1436 19.3782C25.8619 18.4655 24.2113 18.595 23.1368 19.6889C22.8131 20.019 22.6837 20.2132 22.4636 20.7375C22.3082 21.0871 22.1076 21.4819 22.0105 21.6114C21.3891 22.4529 20.198 22.9837 19.1818 22.8801C17.6671 22.7183 15.408 21.346 13.492 19.43C11.1747 17.1127 9.80889 14.4458 10.139 12.8923C10.2944 12.1673 10.8057 11.41 11.4077 11.0086C11.5501 10.9051 11.8608 10.7432 12.0939 10.6461C12.767 10.3613 12.9289 10.2642 13.2461 9.99237C14.3206 9.05379 14.5536 7.29314 13.7704 6.04385C13.5438 5.67489 9.07745 1.16322 8.53371 0.742471C8.10002 0.412348 7.5304 0.153429 7.01903 0.0628069C6.53356 -0.027815 6.20991 -0.021342 5.71149 0.0886988Z" fill="#FF6AA0"/>
</svg>
