<svg width="58" height="33" viewBox="0 0 58 33" fill="none" xmlns="http://www.w3.org/2000/svg">
<path d="M57.5328 29.8026C57.4628 29.6517 57.3975 29.5265 57.3368 29.4262C56.3333 27.6188 54.4156 25.4004 51.5849 22.7703L51.5251 22.7101L51.4952 22.6806L51.4649 22.6503H51.4345C50.1498 21.4256 49.3363 20.6021 48.9956 20.1805C48.3722 19.3774 48.2325 18.5645 48.5732 17.7409C48.8139 17.1185 49.7181 15.8043 51.2836 13.7963C52.107 12.7321 52.7592 11.8793 53.2408 11.2367C56.7143 6.61888 58.2202 3.66805 57.7582 2.38301L57.5788 2.08272C57.4582 1.90193 57.1471 1.73654 56.6457 1.58571C56.1432 1.43519 55.501 1.4103 54.7178 1.51061L46.045 1.57052C45.9045 1.52073 45.7039 1.52538 45.4425 1.58571C45.1815 1.64604 45.0509 1.67631 45.0509 1.67631L44.9 1.75173L44.7802 1.84234C44.6797 1.90225 44.5693 2.00762 44.4487 2.15824C44.3288 2.30834 44.2285 2.48448 44.1483 2.68521C43.2041 5.11446 42.1306 7.37305 40.9257 9.46087C40.1828 10.7058 39.5006 11.7847 38.8775 12.6983C38.2553 13.6115 37.7333 14.2844 37.312 14.7157C36.8901 15.1474 36.5093 15.4932 36.1674 15.7545C35.826 16.0159 35.5653 16.1263 35.3848 16.0859C35.204 16.0455 35.0336 16.0054 34.8723 15.9653C34.5914 15.7846 34.3655 15.5387 34.1952 15.2275C34.0241 14.9164 33.9089 14.5247 33.8487 14.0529C33.7888 13.5808 33.7533 13.1747 33.7432 12.8333C33.7338 12.4923 33.7381 12.0099 33.7585 11.3876C33.7794 10.765 33.7888 10.3437 33.7888 10.1228C33.7888 9.35982 33.8036 8.53172 33.8335 7.63832C33.8639 6.74493 33.8884 6.03707 33.909 5.51559C33.9295 4.99358 33.939 4.4413 33.939 3.85907C33.939 3.27683 33.9035 2.82022 33.8335 2.48881C33.7643 2.15782 33.6581 1.83653 33.5181 1.52506C33.3773 1.2139 33.1712 0.973201 32.9007 0.802328C32.6298 0.631665 32.2929 0.496232 31.892 0.395606C30.8278 0.154801 29.4727 0.0245366 27.8261 0.0042849C24.0921 -0.0357965 21.6928 0.205325 20.6288 0.727333C20.2072 0.947886 19.8257 1.24923 19.4845 1.63043C19.1231 2.07228 19.0727 2.3134 19.3336 2.35306C20.5384 2.53353 21.3913 2.96525 21.8932 3.64779L22.0741 4.00948C22.2148 4.27043 22.3553 4.73242 22.4959 5.39482C22.6363 6.05722 22.7269 6.78997 22.7668 7.59265C22.867 9.05847 22.867 10.3132 22.7668 11.357C22.6663 12.4013 22.5713 13.2142 22.4807 13.7964C22.3901 14.3787 22.2547 14.8505 22.0741 15.2117C21.8932 15.5731 21.7729 15.7939 21.7125 15.8741C21.6523 15.9543 21.6021 16.0048 21.5622 16.0246C21.3013 16.1246 21.0299 16.1756 20.749 16.1756C20.4677 16.1756 20.1266 16.0349 19.7251 15.7537C19.3238 15.4725 18.9073 15.0862 18.4755 14.5942C18.0438 14.1022 17.5569 13.4146 17.0147 12.5313C16.4728 11.648 15.9106 10.6041 15.3284 9.39959L14.8467 8.52602C14.5456 7.96404 14.1342 7.14574 13.6122 6.07188C13.0899 4.99759 12.6282 3.95842 12.2268 2.95459C12.0664 2.533 11.8254 2.21203 11.5042 1.99116L11.3535 1.90056C11.2533 1.8204 11.0924 1.73528 10.8718 1.64456C10.6508 1.55396 10.4202 1.48898 10.1791 1.44901L1.92771 1.50892C1.08452 1.50892 0.51241 1.69994 0.211166 2.08145L0.0906052 2.26192C0.0303775 2.36244 0 2.52298 0 2.74396C0 2.96483 0.0602276 3.2359 0.180788 3.55687C1.38534 6.38789 2.69527 9.11817 4.11056 11.7481C5.52586 14.3781 6.75573 16.4966 7.79943 18.1018C8.84334 19.7081 9.9074 21.2241 10.9916 22.6491C12.0758 24.0747 12.7935 24.9882 13.1446 25.3896C13.4962 25.7916 13.7723 26.0922 13.973 26.293L14.726 27.0156C15.2079 27.4975 15.9154 28.0747 16.849 28.7471C17.7828 29.4199 18.8166 30.0823 19.9509 30.7354C21.0854 31.3873 22.4052 31.9193 23.9111 32.3308C25.4168 32.7427 26.8823 32.908 28.3078 32.8282H31.7711C32.4735 32.7676 33.0056 32.5467 33.3673 32.1655L33.4871 32.0146C33.5677 31.8948 33.6431 31.7086 33.7127 31.4581C33.7832 31.2072 33.8182 30.9307 33.8182 30.63C33.7976 29.7669 33.8633 28.989 34.0135 28.2964C34.1636 27.6041 34.3347 27.082 34.5261 26.7305C34.7173 26.3792 34.9331 26.0829 35.1733 25.8426C35.414 25.6018 35.5855 25.4559 35.6861 25.4057C35.7861 25.3552 35.8659 25.3209 35.9262 25.3003C36.408 25.1398 36.975 25.2953 37.6281 25.7675C38.2807 26.2393 38.8928 26.8218 39.4654 27.5142C40.0376 28.2072 40.7251 28.9846 41.528 29.8478C42.3314 30.7112 43.0339 31.353 43.6359 31.7753L44.238 32.1366C44.6401 32.3777 45.1621 32.5986 45.8047 32.7993C46.4461 33 47.008 33.0502 47.4906 32.9499L55.1996 32.8296C55.9621 32.8296 56.5554 32.7034 56.9763 32.4529C57.398 32.2019 57.6485 31.9255 57.7293 31.6247C57.8099 31.3237 57.8142 30.9822 57.7446 30.6003C57.6732 30.2195 57.6028 29.9531 57.5328 29.8026Z" fill="#FF6AA0"/>
</svg>
